<?xml version="1.0" encoding="UTF-8" standalone="no"?>
<svg
   xmlns:dc="http://purl.org/dc/elements/1.1/"
   xmlns:cc="http://creativecommons.org/ns#"
   xmlns:rdf="http://www.w3.org/1999/02/22-rdf-syntax-ns#"
   xmlns:svg="http://www.w3.org/2000/svg"
   xmlns="http://www.w3.org/2000/svg"
   xmlns:sodipodi="http://sodipodi.sourceforge.net/DTD/sodipodi-0.dtd"
   xmlns:inkscape="http://www.inkscape.org/namespaces/inkscape"
   inkscape:version="1.0rc1 (09960d6, 2020-04-09)"
   height="394.82776"
   width="397.28"
   sodipodi:docname="k_logo-01.svg"
   xml:space="preserve"
   viewBox="0 0 397.28 394.82776"
   y="0px"
   x="0px"
   id="Layer_1"
   version="1.1"><metadata
   id="metadata23"><rdf:RDF><cc:Work
       rdf:about=""><dc:format>image/svg+xml</dc:format><dc:type
         rdf:resource="http://purl.org/dc/dcmitype/StillImage" /><dc:title></dc:title></cc:Work></rdf:RDF></metadata><defs
   id="defs21" /><sodipodi:namedview
   inkscape:current-layer="Layer_1"
   inkscape:window-maximized="0"
   inkscape:window-y="23"
   inkscape:window-x="0"
   inkscape:cy="391.85918"
   inkscape:cx="302.27776"
   inkscape:zoom="0.9280303"
   fit-margin-bottom="0"
   fit-margin-right="0"
   fit-margin-left="0"
   fit-margin-top="0"
   showgrid="false"
   id="namedview19"
   inkscape:window-height="1198"
   inkscape:window-width="1281"
   inkscape:pageshadow="2"
   inkscape:pageopacity="0"
   guidetolerance="10"
   gridtolerance="10"
   objecttolerance="10"
   borderopacity="1"
   bordercolor="#666666"
   pagecolor="#ffffff" />
<style
   id="style10"
   type="text/css">
	.st0{fill:#E8232F;}
	.st1{fill:#FFFFFF;}
</style>
<g
   transform="translate(-114.71,-198.1)"
   id="g14">
	<path
   inkscape:connector-curvature="0"
   id="path12"
   d="m 243.74,402.14 v 109.31 c 0,51.62 5.4,55.87 51.61,60.12 v 21.25 H 115.91 v -21.25 c 43.21,-4.25 49.21,-8.5 49.21,-60.12 V 279.48 c 0,-51.62 -5.4,-55.87 -50.41,-60.12 V 198.1 h 176.44 v 21.25 c -42.61,4.25 -47.41,8.5 -47.41,60.12 V 382.71 Z M 365.22,219.36 V 198.1 h 138.37 v 21.25 c -42.08,0.7 -53.2,20.1 -86.21,51.07 -35.41,32.79 -60.61,61.94 -87.62,90.48 38.41,57.69 74.21,110.46 117.42,165.72 24.6,30.97 40.81,41.29 64.81,44.94 v 21.25 H 391.37 L 253.32,391.15 391.36,245.23 c 12.77,-12.83 14.49,-21.03 -10.1,-24.03 z"
   class="st0" />
</g>
<path
   inkscape:connector-curvature="0"
   id="path16"
   d="m 124.7,365.86 c 0.18,-0.13 0.27,-0.57 0.41,-0.87 -0.21,-0.1 -0.43,-0.32 -0.63,-0.27 -0.98,0.24 -1.95,0.55 -2.92,0.85 -0.41,0.13 -0.82,0.3 -1.24,0.44 0.39,-0.78 0.83,-1.42 1.23,-2.1 0.12,-0.2 0.14,-0.54 0.2,-0.81 -0.19,-0.03 -0.39,-0.12 -0.57,-0.08 -0.21,0.05 -0.42,0.18 -0.62,0.33 -0.59,0.44 -1.19,0.86 -1.75,1.36 -1.74,1.54 -3.56,1.82 -5.43,0.7 -1.78,-1.07 -3.55,-2.19 -5.29,-3.43 -1.07,-0.77 -2.07,-1.81 -3.09,-2.75 -0.38,-0.35 -0.64,-0.85 -0.56,-1.68 0.59,1.17 1.37,1.87 2.29,2.27 0.04,-0.31 0.08,-0.64 0.15,-1.19 0.68,0.93 1.26,1.72 1.86,2.53 -0.07,-0.91 -0.14,-1.79 -0.21,-2.68 0.07,-0.07 0.13,-0.13 0.2,-0.2 0.7,0.58 1.4,1.15 2.1,1.74 0.23,0.2 0.43,0.49 0.66,0.7 0.09,0.08 0.25,0.13 0.32,0.06 0.06,-0.06 0.08,-0.31 0.07,-0.47 -0.02,-0.61 -0.06,-1.21 -0.11,-1.94 0.26,0.23 0.44,0.41 0.63,0.54 0.56,0.38 1.35,0.08 1.51,-0.56 0.22,-0.9 0.27,-0.89 0.76,-0.21 0.52,0.73 1.06,1.42 1.61,2.09 0.1,0.12 0.3,0.06 0.46,0.08 0,-0.25 0.06,-0.53 0,-0.73 -0.08,-0.3 -0.24,-0.55 -0.37,-0.82 -0.29,-0.61 -0.57,-1.22 -0.84,-1.79 0.32,-0.23 0.58,-0.33 0.75,-0.56 0.44,-0.61 0.94,-0.76 1.5,-0.7 0.35,0.04 0.71,0.1 1.06,0.05 0.22,-0.03 0.5,-0.16 0.61,-0.4 0.25,-0.53 0.52,-0.53 0.88,-0.4 0.69,0.24 1.38,0.48 2.07,0.62 0.17,0.03 0.36,-0.12 0.54,-0.25 0.06,-0.04 0.12,-0.09 0.18,-0.12 v 0 0 c -0.05,-0.12 -0.1,-0.26 -0.15,-0.39 -0.02,-0.05 -0.03,-0.09 -0.05,-0.13 -0.05,-0.13 -0.1,-0.25 -0.17,-0.33 -0.02,-0.03 -0.04,-0.05 -0.07,-0.07 -0.69,-0.57 -1.42,-1.05 -2.14,-1.56 -0.18,-0.13 -0.35,-0.26 -0.53,-0.38 0.4,0.01 0.76,0.14 1.11,0.27 1.04,0.38 2.09,0.58 3.14,0.2 0.3,-0.11 0.78,-0.49 0.8,-0.8 0.04,-0.67 -0.45,-0.82 -0.8,-0.92 -0.7,-0.19 -1.42,-0.29 -2.03,-0.41 0.29,-0.23 0.68,-0.5 1.05,-0.85 0.1,-0.09 0.19,-0.42 0.16,-0.58 -0.03,-0.16 -0.22,-0.27 -0.34,-0.36 -0.07,-0.05 -0.17,-0.03 -0.25,-0.03 -1.19,0.08 -2.38,0.18 -3.57,0.24 -0.63,0.03 -1.26,0.01 -1.97,0.01 0.12,-0.4 0.23,-0.68 0.29,-0.99 0.06,-0.28 0.15,-0.71 0.06,-0.85 -0.11,-0.2 -0.39,-0.27 -0.58,-0.24 -0.33,0.06 -0.65,0.23 -0.97,0.39 -1.38,0.7 -2.77,0.77 -4.16,0.11 -1.4,-0.66 -2.8,-1.29 -4.18,-2.03 -0.97,-0.51 -1.91,-1.16 -2.85,-1.78 -0.49,-0.32 -0.83,-0.88 -1.07,-1.85 0.33,0.05 0.53,0.09 0.74,0.11 0.15,0.02 0.39,0.11 0.43,0 0.48,-1.06 0.93,-0.23 1.39,0 0.67,0.34 1.31,0.87 2,1.02 1.11,0.24 2.24,0.26 3.36,0.35 0.21,0.02 0.42,-0.05 0.63,-0.09 -0.02,-0.29 -0.04,-0.58 -0.06,-0.92 0.23,0.31 0.45,0.6 0.66,0.88 0.63,0.8 0.76,0.74 0.96,-0.46 0.01,-0.04 0.05,-0.06 0.12,-0.14 0.29,0.25 0.57,0.58 0.9,0.76 0.24,0.13 0.57,0.22 0.79,0.07 0.52,-0.36 0.98,-0.89 1.48,-1.31 0.54,-0.46 0.56,-0.58 0.11,-1.18 -0.12,-0.16 -0.24,-0.34 -0.36,-0.5 0.41,0.08 0.79,0.3 1.17,0.46 0.15,0.06 0.42,0.06 0.46,-0.05 0.37,-1.13 1.12,-1.13 1.75,-1.44 0.72,-0.35 1.46,-0.59 2.17,-1.01 0.33,-0.2 0.61,-0.43 1,-0.41 0.29,0.02 0.59,-0.34 0.89,-0.53 0,-0.1 0,-0.2 -0.01,-0.29 -0.3,-0.17 -0.62,-0.3 -0.9,-0.54 -0.19,-0.17 -0.48,-0.58 -0.45,-0.76 0.17,-0.97 -0.15,-1.37 -0.76,-1.57 1.14,-1.06 2.51,-1.12 3.42,-2.64 -2.43,0.27 -4.83,0.84 -7.26,0.25 0.07,-0.18 0.16,-0.23 0.23,-0.33 0.03,-0.04 0.06,-0.08 0.08,-0.12 0.08,-0.13 0.16,-0.26 0.23,-0.4 v 0 0 c 0,0 -0.01,-0.01 -0.01,-0.01 -0.02,-0.02 -0.04,-0.04 -0.06,-0.07 -0.04,-0.05 -0.08,-0.1 -0.12,-0.15 -0.06,-0.08 -0.13,-0.14 -0.2,-0.18 -0.19,-0.1 -0.39,-0.12 -0.59,-0.14 -0.64,-0.05 -1.28,-0.08 -1.91,-0.13 -1.38,-0.11 -2.74,-0.4 -4.01,-1.32 -0.11,-0.08 -0.19,-0.29 -0.26,-0.49 -0.03,-0.07 -0.05,-0.13 -0.08,-0.19 0.02,-0.02 0.04,-0.04 0.06,-0.06 0.02,-0.02 0.04,-0.04 0.06,-0.07 0.04,-0.05 0.08,-0.09 0.11,-0.14 0.08,-0.09 0.15,-0.16 0.24,-0.18 0.39,-0.09 0.82,0.02 1.05,-0.67 0.03,-0.09 0.19,-0.13 0.27,-0.09 0.35,0.19 0.62,0.13 0.72,-0.58 0.88,1.05 1.81,1.66 2.99,1.29 -0.46,-0.62 -0.85,-1.15 -1.36,-1.84 1.05,-0.13 1.95,-0.24 2.86,-0.35 0,-0.06 0,-0.12 0.01,-0.19 -0.57,-0.45 -1.14,-0.9 -1.71,-1.35 -0.01,-0.08 -0.01,-0.16 -0.02,-0.24 1.29,0.33 2.07,-0.88 2.87,-2.05 0.14,-0.21 0.35,-0.3 0.52,-0.47 0.17,-0.16 0.4,-0.28 0.49,-0.52 0.19,-0.51 0.31,-1.08 0.46,-1.63 -0.36,-0.07 -0.75,-0.29 -1.09,-0.18 -0.87,0.26 -1.71,0.71 -2.58,1.01 -0.67,0.23 -0.82,-0.03 -0.69,-1.09 0.06,-0.49 -0.03,-0.72 -0.36,-0.58 -0.53,0.22 -1.06,0.49 -1.59,0.68 -0.6,0.22 -1.25,0.7 -1.8,0.5 -1.61,-0.59 -3.17,-1.44 -4.74,-2.24 -0.25,-0.13 -0.43,-0.58 -0.64,-0.88 0.29,-0.13 0.57,-0.3 0.86,-0.39 0.36,-0.11 0.84,0.04 1.06,-0.27 0.49,-0.71 0.79,-0.39 1.19,0.11 0.73,0.91 2.4,0.81 3.17,-0.2 -0.27,-0.45 -0.54,-0.89 -0.81,-1.34 0.03,-0.06 0.06,-0.12 0.08,-0.17 0.42,0.29 0.85,0.59 1.27,0.85 0.11,0.07 0.26,0.08 0.38,0.03 0.04,-0.02 0.06,-0.33 0.03,-0.48 -0.14,-0.64 0.06,-0.84 0.44,-0.87 0.38,-0.03 0.59,-0.29 0.51,-0.95 -0.03,-0.22 0.03,-0.56 0.13,-0.69 0.32,-0.43 0.17,-0.74 -0.05,-1.09 -0.44,-0.7 -0.44,-0.85 -0.03,-1.61 0.12,-0.22 0.27,-0.4 0.38,-0.62 0.19,-0.36 0.37,-0.75 0.55,-1.12 -0.04,-0.09 -0.07,-0.18 -0.11,-0.27 -0.41,0.14 -0.82,0.26 -1.22,0.42 -1.46,0.57 -2.91,1.24 -4.38,1.72 -1.1,0.36 -2.11,-0.05 -2.82,-1.55 -0.11,-0.23 -0.15,-0.54 -0.23,-0.82 0.21,-0.13 0.42,-0.38 0.62,-0.35 0.43,0.07 0.84,0.32 1.27,0.42 0.31,0.07 0.63,0.01 0.95,0.01 -0.16,-0.42 -0.29,-0.89 -0.49,-1.26 -0.25,-0.46 -0.56,-0.84 -0.95,-1.42 0.38,0 0.59,0.01 0.8,0 0.32,-0.02 0.64,0 0.95,-0.1 0.17,-0.05 0.3,-0.31 0.45,-0.48 -0.14,-0.16 -0.27,-0.34 -0.42,-0.47 -0.11,-0.09 -0.24,-0.11 -0.38,-0.17 1.24,-1.49 1.24,-1.49 1.24,-2.06 -0.42,0.2 -0.84,0.49 -1.28,0.59 -2.49,0.55 -4.99,0.44 -7.48,-0.12 -0.65,-0.15 -1.24,-0.47 -1.79,-1.16 0.38,-0.16 0.82,-0.16 0.96,-0.47 0.16,-0.35 0.04,-0.99 0.04,-1.52 0.48,0.46 0.93,0.94 1.42,1.33 0.17,0.13 0.41,0.1 0.61,0.06 0.24,-0.04 0.47,-0.18 0.71,-0.26 0.17,-0.05 0.45,0.01 0.5,-0.13 0.28,-0.76 0.72,-0.72 1.18,-0.76 0.15,-0.01 0.38,-0.13 0.42,-0.3 0.04,-0.16 -0.09,-0.46 -0.17,-0.66 -0.07,-0.17 -0.18,-0.3 -0.28,-0.44 -0.46,-0.63 -0.92,-1.26 -1.47,-2.03 0.45,0.1 0.78,0.19 1.1,0.25 0.75,0.14 1.5,0.29 2.25,0.37 0.34,0.04 0.61,-0.18 0.42,-0.85 -0.17,-0.58 0.04,-1.03 0.3,-1.26 0.37,-0.32 0.8,-0.48 1.21,-0.67 0.3,-0.14 0.62,-0.22 0.93,-0.33 0,-0.1 0.01,-0.21 0.01,-0.31 -0.27,-0.22 -0.53,-0.45 -0.93,-0.78 0.48,0 0.8,0.04 1.11,-0.02 0.18,-0.04 0.39,-0.19 0.5,-0.39 0.16,-0.28 0.24,-0.66 0.4,-1.13 -0.29,-1.2 -1.05,-0.9 -1.69,-0.88 0.09,-0.29 0.17,-0.56 0.25,-0.83 -0.22,-0.08 -0.43,-0.21 -0.65,-0.22 -0.24,-0.01 -0.48,0.08 -0.78,0.15 0.05,-0.49 0.09,-0.83 0.12,-1.1 -1.26,0.4 -2.5,0.8 -3.84,1.24 0.54,-1.01 1.3,-1.55 1.61,-2.82 -0.63,0.34 -1.16,0.62 -1.7,0.91 -0.03,-0.07 -0.05,-0.15 -0.08,-0.22 0.2,-0.6 0.4,-1.19 0.6,-1.79 -0.06,-0.07 -0.12,-0.15 -0.18,-0.22 -0.22,0.24 -0.46,0.46 -0.67,0.72 -0.71,0.88 -1.43,1.78 -2.36,1.97 -1.97,0.42 -3.84,-0.14 -5.6,-1.55 -0.3,-0.24 -0.61,-0.63 -0.77,-1.07 -0.27,-0.77 -0.43,-1.64 -0.69,-2.7 0.26,0.27 0.51,0.39 0.58,0.64 0.25,0.78 0.68,0.92 1.17,0.95 0.49,0.03 0.97,0.09 1.45,0.15 0.36,0.05 0.83,0.39 1.04,0.15 0.21,-0.25 0.17,-1.03 0.25,-1.64 0.52,0.45 1.02,0.94 1.56,1.33 0.13,0.09 0.29,0.1 0.45,0.09 0.1,0 0.19,-0.01 0.29,0 v 0 0 c -0.05,-0.37 -0.1,-0.74 -0.14,-1.12 -0.01,-0.05 0.01,-0.1 0.03,-0.33 0.82,0.11 1.65,0.19 2.47,0.35 0.68,0.14 1.27,-0.14 1.85,-0.64 -0.03,-0.15 -0.04,-0.23 -0.07,-0.29 -0.18,-0.43 -0.37,-0.85 -0.55,-1.28 0.3,-0.23 0.62,-0.42 0.91,-0.69 0.18,-0.18 0.32,-0.47 0.48,-0.71 -0.17,-0.13 -0.33,-0.27 -0.5,-0.4 -0.06,-0.05 -0.11,-0.1 -0.27,-0.24 1.29,-1 2.43,-2.13 3.42,-3.69 -0.45,-0.14 -0.83,-0.21 -1.2,-0.38 -0.35,-0.16 -0.74,-0.31 -0.99,-0.68 -0.27,-0.39 -0.51,-0.41 -0.81,-0.33 -0.26,0.07 -0.53,0.14 -0.9,0.25 0.15,-0.38 0.24,-0.57 0.29,-0.78 0.05,-0.23 0.15,-0.59 0.08,-0.69 -0.1,-0.17 -0.33,-0.27 -0.48,-0.21 -0.29,0.1 -0.57,0.29 -0.83,0.52 -1.11,0.98 -2.3,1.01 -3.53,0.85 0.28,-0.49 0.64,-0.86 0.74,-1.35 0.1,-0.53 -0.04,-1.17 -0.08,-1.92 -0.41,0.36 -0.7,0.62 -0.99,0.88 -0.8,0.7 -1.64,1.29 -2.57,1.13 -2.84,-0.51 -5.329995,-2.34 -7.589995,-4.97 -0.11,-0.13 -0.2,-0.33 -0.29,-0.5 0.03,-0.05 0.05,-0.09 0.08,-0.14 0.42,0.27 0.83,0.54 1.29,0.83 0.05,-0.52 0.08,-0.88 0.14,-1.45 0.17,0.41 0.25,0.66 0.37,0.85 0.14,0.21 0.3,0.41 0.47,0.52 0.44,0.26 0.9,0.45 1.34,0.7 0.18,0.1 0.33,0.28 0.57,0.48 0.06,-0.83 0.11,-1.51 0.159995,-2.14 0.61,0.56 1.14,1.1 1.7,1.54 0.48,0.36 0.66,0.16 0.77,-0.63 0.04,-0.3 0.08,-0.6 0.13,-1.06 0.14,0.61 0.22,1.06 0.35,1.47 0.05,0.18 0.18,0.35 0.3,0.43 0.27,0.18 0.58,0.27 0.84,0.47 0.37,0.28 0.61,0.15 0.88,-0.31 0.24,-0.42 0.55,-0.75 0.91,-1.2 -0.04,-0.47 -0.08,-1.12 -0.14,-1.92 0.39,0.2 0.66,0.37 0.95,0.47 0.28,0.1 0.58,0.14 0.87,0.21 0.02,-0.08 0.03,-0.16 0.05,-0.24 -0.17,-0.46 -0.35,-0.91 -0.56,-1.46 0.29,-0.09 0.53,-0.16 0.83,-0.25 -0.11,-0.24 -0.22,-0.43 -0.3,-0.64 -0.17,-0.44 -0.57,-0.8 -0.29,-1.37 0.04,-0.08 0.58,0.3 0.81,0.61 0.64,0.85 1.24,1.01 2.02,0.4 -0.04,-0.11 -0.07,-0.23 -0.11,-0.33 -0.46,-1.13 -0.39,-1.36 0.46,-1.57 0.83,-0.2 1.42,-1.01 1.95,-2.06 -1.03,0 -2.06,0 -3.17,0 0.24,-0.62 0.42,-1.09 0.6,-1.56 -1.16,0.36 -1.91,1.84 -3.17,2.18 0.21,-0.58 0.34,-0.96 0.51,-1.42 -0.11,0.04 -0.17,0.09 -0.23,0.09 -0.19,0 -0.37,-0.02 -0.56,-0.02 0.06,-0.31 0.08,-0.64 0.18,-0.91 0.11,-0.33 0.29,-0.6 0.44,-0.9 -0.03,-0.08 -0.07,-0.15 -0.1,-0.23 -0.28,0.22 -0.59,0.39 -0.84,0.67 -0.53,0.6 -1.02,1.26 -1.54,1.88 -0.68,0.82 -1.44,1.14 -2.27,0.72 -1.08,-0.54 -2.18,-1.03 -3.219995,-1.75 -0.73,-0.51 -1.39,-1.32 -2.03,-2.1 -0.25,-0.31 -0.35,-0.91 -0.55,-1.47 0.81,-0.18 1.36,-0.08 1.77,0.91 0.15,0.35 0.5,0.57 0.79,0.7 0.35,0.15 0.54,-0.13 0.46,-0.74 -0.04,-0.28 -0.06,-0.56 -0.08,-0.84 0.35,0.36 0.57,0.84 0.859995,1.16 0.39,0.42 0.81,0.85 1.26,1.03 0.48,0.19 0.62,-0.15 0.56,-0.92 -0.04,-0.51 -0.08,-1.04 -0.04,-1.54 0.05,-0.72 0.4,-0.96 0.8,-0.59 0.17,0.16 0.29,0.44 0.46,0.6 0.49,0.47 0.98,0.96 1.51,1.32 0.24,0.16 0.56,0.03 0.85,0.03 0.03,-0.09 0.05,-0.18 0.08,-0.27 -0.61,-0.97 -1.23,-1.94 -1.9,-2.98 0.58,-0.26 0.87,0.03 1.12,0.56 0.11,0.22 0.28,0.38 0.44,0.52 0.16,0.14 0.36,0.17 0.51,0.32 0.49,0.48 1,0.53 1.65,0.38 -0.36,-0.51 -0.62,-0.88 -0.99,-1.41 0.8,-0.44 1.46,-0.81 2.21,-1.23 -0.35,-0.37 -0.67,-0.69 -1.09,-1.13 0.35,0 0.54,0.01 0.74,0 0.5,-0.03 1.01,-0.01 1.5,-0.14 0.42,-0.1 0.8,-0.54 0.76,-1.24 -0.04,-0.7 -0.52,-0.69 -0.88,-0.75 -0.5,-0.08 -1.01,-0.07 -1.51,-0.19 -0.18,-0.04 -0.49,-0.39 -0.47,-0.53 0.07,-0.68 -0.21,-0.74 -0.48,-0.66 -0.54,0.17 -1.07,0.4 -1.59,0.68 -0.47,0.26 -0.91,0.66 -1.38,0.94 -0.28,0.17 -0.57,0.2 -0.44,-0.52 0.08,-0.48 0.02,-0.77 -0.35,-0.87 -0.11,-0.03 -0.21,-0.46 -0.26,-0.73 -0.03,-0.2 0.02,-0.43 0.05,-0.78 -0.58,0.28 -1.09,0.53 -1.68,0.81 0.02,-0.51 0.05,-0.86 0.03,-1.21 -0.01,-0.18 -0.08,-0.47 -0.16,-0.5 -0.12,-0.05 -0.28,0.04 -0.4,0.15 -0.77,0.76 -1.499995,1.64 -2.309995,2.29 -1.07,0.86 -2.02,0 -3.06,-0.68 0.18,-0.25 0.29,-0.4 0.4,-0.56 0.11,-0.16 0.23,-0.31 0.31,-0.5 0.3,-0.69 0.18,-1.13 -0.35,-1.21 -0.45,-0.07 -0.9,-0.02 -1.36,-0.01 -0.97,0.03 -1.73,-0.53 -2.07,-1.97 -0.28,-1.15 -0.47,-2.36 -0.66,-3.56 -0.05,-0.32 0.06,-0.7 0.1,-1.05 0.09,0 0.18,0 0.26,0 0.05,0.49 0.16,0.99 0.13,1.48 -0.1,1.55 0.44,2.67 1.03,3.73 0.31,0.55 0.62,0.5 0.84,-0.14 0.17,-0.49 0.23,-1.06 0.33,-1.6 0.04,-0.23 0.04,-0.47 0.07,-0.86 0.96,2.99 1.65,3.78 2.67,3.08 -0.17,-0.69 -0.34,-1.38 -0.54,-2.19 0.28,0.07 0.44,0.11 0.59,0.15 -0.05,-0.09 -0.09,-0.18 -0.14,-0.28 0.18,-0.17 0.35,-0.39 0.55,-0.47 0.08,-0.03 0.28,0.23 0.31,0.41 0.21,1.45 0.94,2.23 1.65,3 0.579995,0.63 0.809995,0.43 0.909995,-0.66 0.04,-0.39 0.13,-0.79 0.25,-1.15 0.08,-0.26 0.25,-0.46 0.33,-0.61 0.19,0.25 0.42,0.63 0.69,0.92 0.13,0.14 0.34,0.25 0.49,0.2 0.47,-0.17 0.93,-0.39 1.39,-0.65 0.62,-0.34 1.26,-0.65 1.76,-1.6 -0.41,-0.35 -0.77,-0.62 -1.1,-0.96 -0.28,-0.28 -0.63,-0.55 -0.75,-0.97 -0.17,-0.57 -0.41,-0.68 -0.73,-0.75 -0.27,-0.06 -0.54,-0.07 -0.8,-0.17 -0.63,-0.24 -1.27,-0.45 -1.74,-1.29 0.09,-0.12 0.17,-0.18 0.21,-0.29 0.11,-0.29 0.33,-0.65 0.29,-0.89 -0.04,-0.25 -0.32,-0.52 -0.52,-0.58 -0.57,-0.15 -1.119995,-0.11 -1.629995,0.48 -0.46,0.53 -0.99,0.9 -1.66,0.64 0.23,-0.84 0.7,-0.86 1.09,-1.08 0.32,-0.18 0.46,-0.4 0.21,-0.89 -0.09,-0.19 -0.15,-0.42 -0.25,-0.7 0.89,-0.24 1.679995,-0.53 2.169995,-1.88 -0.27,-0.13 -0.48,-0.28 -0.699995,-0.34 -0.66,-0.18 -1.33,-0.3 -1.99,-0.49 -0.17,-0.05 -0.45,-0.39 -0.44,-0.46 0.14,-0.57 0.29,-1.16 0.54,-1.62 0.07,-0.13 0.47,0.13 0.7,0.27 0.18,0.11 0.34,0.35 0.52,0.47 0.11,0.07 0.32,0.08 0.36,-0.01 0.24,-0.63 0.3,-1.53 0.969995,-1.5 0.11,-0.61 0.47,-0.56 0.76,-0.72 0.2,-0.11 0.51,-0.37 0.51,-0.56 0,-0.31 -0.17,-0.79 -0.35,-0.9 -0.41,-0.26 -0.87,-0.32 -1.3,-0.51 -0.189995,-0.09 -0.349995,-0.31 -0.519995,-0.47 0.11,-0.26 0.2,-0.55 0.33,-0.79 C 96.34,222.39 96.53,222.21 96.66,221.97 c 0.18,-0.31 0.3,-0.7 0.49,-0.99 0.17,-0.27 0.42,-0.43 0.6,-0.69 0.3,-0.43 0.24,-0.88 -0.16,-1.02 -0.39,-0.14 -0.8,-0.15 -1.2,-0.2 -0.229995,-0.03 -0.469995,0 -0.749995,0 0.46,-1.07 0.859995,-1.99 1.249995,-2.93 0.16,-0.4 0.15,-0.87 -0.13,-1.07 -0.16,-0.11 -0.47,-0.03 -0.609995,0.15 -0.47,0.63 -0.88,1.35 -1.32,2.02 -0.43,0.66 -0.55,0.64 -0.9,-0.09 -0.05,-0.1 -0.1,-0.21 -0.15,-0.31 -0.39,-0.71 -0.62,-0.74 -0.92,0.04 -0.38,0.99 -0.77,2.02 -1.01,3.11 -0.58,2.69 -1.97,4.15 -3.39,5.59 -0.27,0.27 -0.45,0.12 -0.47,-0.39 -0.03,-1.06 -0.05,-2.12 -0.08,-3.18 -0.02,-0.62 0.06,-1.33 -0.12,-1.83 -0.32,-0.95 -0.29,-1.86 -0.21,-2.85 0.07,-0.89 0.34,-1.4 0.89,-1.65 0.81,-0.37 0.81,-0.37 0.77,0.89 -0.01,0.28 0.07,0.76 0.16,0.8 0.19,0.08 0.46,-0.01 0.64,-0.18 0.21,-0.19 0.35,-0.55 0.52,-0.83 0.2,-0.33 0.38,-0.39 0.7,-0.19 0.31,0.19 0.71,0.1 1.06,0 0.29,-0.08 0.35,-0.45 0.14,-0.82 -0.3,-0.52 -0.62,-1.02 -0.94,-1.51 -0.32,-0.5 -0.68,-0.88 -1.18,-0.93 -0.29,-0.03 -0.57,-0.28 -0.85,-0.44 0.01,-0.13 0.01,-0.25 0.02,-0.38 0.31,-0.06 0.62,-0.19 0.92,-0.16 0.48,0.05 0.96,0.27 1.44,0.3 0.53,0.03 1.07,-0.04 1.6,-0.14 0.13,-0.02 0.25,-0.3 0.34,-0.5 0.02,-0.04 -0.08,-0.29 -0.15,-0.35 -0.65,-0.53 -1.3,-1.03 -1.99,-1.57 0.39,-1.22 1.53,-1.53 1.96,-3.15 -1.41,0.22 -2.45,1.21 -3.51,2.32 0.04,-0.4 0.1,-0.72 0.09,-1.05 -0.01,-0.31 -0.1,-0.61 -0.15,-0.91 -0.16,0.16 -0.36,0.28 -0.47,0.5 -0.62,1.19 -1.06,2.51 -1.16,3.76 -0.46,0.47 -0.79,0.81 -1.2,1.23 0.02,-1.86 0.07,-3.62 0.72,-5.18 0.31,-0.74 0.68,-1.41 1.01,-2.13 0.43,-0.93 0.86,-1.85 1.26,-2.81 0.09,-0.2 0.12,-0.64 0.04,-0.78 -0.11,-0.18 -0.36,-0.26 -0.53,-0.21 -0.62,0.16 -1.04,0.73 -1.33,1.6 -0.13,0.38 -0.36,0.69 -0.56,1.01 -0.03,0.05 -0.06,0.09 -0.08,0.14 -0.01,-0.06 -0.03,-0.12 -0.05,-0.18 -0.12,-0.43 -0.27,-0.85 -0.29,-1.29 -0.06,-1 0,-2.02 -0.03,-3.03 -0.05,-1.2 -0.61,-1.9 -1.1,-2.65 -0.06,0.02 -0.12,0.05 -0.19,0.07 0,2.91 0,5.81 0,8.72 -0.97,-1.17 -1.65,-2.62 -2.69,-3.59 -0.05,0.65 -0.07,1.3 0.09,1.8 0.31,0.91 0.65,1.85 1.11,2.57 1.26,1.97 1.32,4.36 1.2,6.86 -0.01,0.22 -0.09,0.44 -0.19,0.88 -0.37,-1.09 -0.71,-1.93 -0.95,-2.83 -0.13,-0.48 -0.04,-1.08 -0.12,-1.61 -0.11,-0.74 -0.24,-1.51 -0.47,-2.17 -0.21,-0.61 -0.63,-0.54 -0.81,0.11 -0.12,0.45 -0.14,0.97 -0.22,1.57 -0.44,0 -0.8,-0.39 -1.16,-0.81 -0.26,-0.31 -0.54,-0.65 -0.84,-0.81 -0.48,-0.26 -0.83,0.28 -0.66,1 0.15,0.64 0.39,1.25 0.64,1.83 0.3,0.68 0.67,1.29 0.98,1.97 0.41,0.9 0.34,1.13 -0.3,1.62 -0.19,0.15 -0.46,0.57 -0.43,0.79 0.05,0.42 0.25,1.03 0.47,1.12 0.3,0.13 0.69,-0.11 1.02,-0.27 0.17,-0.08 0.3,-0.35 0.58,-0.7 0.04,1.07 0.1,1.91 0.09,2.74 0,0.5 -0.26,0.47 -0.48,0.3 -0.39,-0.3 -0.76,-0.67 -1.16,-0.94 -0.1,-0.06 -0.2,-0.09 -0.31,-0.1 -0.11,-0.01 -0.22,-0.01 -0.33,-0.04 v 0 0 c 0,0.14 -0.02,0.29 -0.03,0.44 -0.02,0.25 -0.04,0.49 0.03,0.65 0.31,0.73 0.68,1.38 1.06,2.03 0.17,0.29 0.4,0.5 0.6,0.74 -0.03,0.09 -0.06,0.17 -0.09,0.26 -0.62,-0.25 -1.08,-0.08 -1.32,0.9 -0.04,0.14 -0.41,0.24 -0.56,0.14 -0.44,-0.3 -0.85,-0.71 -1.27,-1.09 -0.82,-0.74 -1.63,-1.53 -2.48,-2.23 -0.49,-0.4 -0.77,-0.05 -0.71,0.81 0.07,0.92 0.44,1.55 0.91,2.03 0.29,0.3 0.59,0.55 0.94,0.86 -0.49,0.18 -0.92,0.28 -1.32,0.49 -0.28,0.15 -0.65,0.45 -0.45,0.98 0.14,0.36 0.52,0.53 0.81,0.69 0.13,0.07 0.31,-0.1 0.46,-0.16 -0.02,0.09 -0.03,0.18 -0.05,0.26 0.32,0.28 0.63,0.55 0.95,0.83 -0.1,0.13 -0.21,0.27 -0.4,0.5 0.43,0.58 0.82,1.11 1.28,1.71 -0.27,0.08 -0.48,0.14 -0.69,0.21 -0.47,0.16 -0.96,0.27 -1.41,0.52 -0.6,0.33 -0.67,0.97 -0.23,1.66 0.32,0.51 0.67,0.69 1.13,0.38 0.83,-0.56 1.22,-0.4 1.84,0.61 0.22,0.36 0.95,0.41 1.11,-0.02 0.37,-0.98 0.92,-0.63 1.57,-0.7 -0.45,0.63 -0.8,1.07 -1.12,1.56 -0.36,0.56 -0.27,0.99 0.23,1.09 0.28,0.05 0.6,-0.03 0.87,-0.18 0.24,-0.13 0.43,-0.44 0.74,-0.76 -0.04,0.55 -0.11,0.96 -0.09,1.38 0.01,0.32 0.11,0.89 0.18,0.89 0.28,0.01 0.57,-0.13 0.84,-0.28 0.07,-0.04 0.1,-0.28 0.17,-0.5 0.12,0.23 0.2,0.4 0.35,0.69 0.29,-0.73 0.54,-1.36 0.85,-2.15 0.21,0.96 0.4,1.76 0.57,2.57 0.1,0.5 -0.06,0.79 -0.39,0.87 -0.35,0.08 -0.69,0.19 -1.04,0.25 -1.92,0.32 -3.82,0.51 -5.47,-1.58 -0.34,-0.44 -0.84,-0.64 -1.29,-0.82 -0.19,-0.08 -0.44,0.19 -0.66,0.31 0.09,0.3 0.14,0.69 0.29,0.88 0.38,0.48 0.81,0.88 1.24,1.33 -0.05,0.03 -0.08,0.07 -0.11,0.07 -1.74,-0.4 -3.25,-1.57 -4.6,-3.28 -0.25,-0.32 -0.57,-0.59 -0.88,-0.68 -0.22,-0.07 -0.56,0.1 -0.7,0.35 -0.11,0.2 0.01,0.7 0.05,1.05 0.02,0.16 0.1,0.31 0.19,0.58 -0.32,0.11 -0.58,0.25 -0.85,0.3 -0.67,0.13 -1.34,0.18 -2,0.35 -0.23,0.06 -0.44,0.36 -0.66,0.56 0.14,0.34 0.24,0.81 0.44,1 0.93,0.88 1.95,1.21 3.04,1.05 0.4,-0.06 0.8,-0.14 1.34,-0.24 -0.51,0.55 -0.93,0.89 -1.25,1.39 -0.19,0.3 -0.34,0.91 -0.27,1.27 0.11,0.57 0.55,0.63 0.86,0.42 0.47,-0.31 0.9,-0.76 1.33,-1.19 0.33,-0.34 0.61,-0.81 0.96,-1.1 0.19,-0.16 0.46,-0.07 0.7,-0.1 0.01,0.1 0.02,0.19 0.04,0.29 -0.23,0.19 -0.46,0.36 -0.68,0.57 -0.27,0.25 -0.55,0.5 -0.79,0.81 -0.22,0.28 -0.24,0.67 0.04,0.89 0.38,0.3 0.54,0.69 0.51,1.36 -0.01,0.21 0.16,0.5 0.29,0.63 0.09,0.09 0.28,0.01 0.4,-0.08 0.48,-0.37 0.95,-0.79 1.43,-1.17 0.44,-0.35 0.9,-0.65 1.33,-1.01 0.26,-0.22 0.49,-0.53 0.73,-0.81 0.03,0.06 0.06,0.12 0.09,0.17 -0.2,0.82 -0.66,1.29 -1.1,1.78 -0.31,0.35 -0.64,0.66 -0.93,1.05 -0.1,0.14 -0.2,0.51 -0.15,0.66 0.08,0.24 0.3,0.56 0.42,0.53 0.38,-0.09 0.75,-0.31 1.11,-0.54 0.16,-0.1 0.29,-0.34 0.43,-0.52 0.06,0.34 0,0.57 0.01,0.79 0.01,0.31 0.06,0.62 0.09,0.93 0.19,-0.14 0.4,-0.23 0.55,-0.44 0.18,-0.25 0.32,-0.6 0.47,-0.91 0.44,-0.92 0.44,-0.92 0.96,-0.17 0.02,0.03 0.06,0.02 0.15,0.03 0.31,-0.86 0.86,-0.91 1.45,-0.96 1.11,-0.1 1.97,-0.94 2.51,-2.47 0.13,-0.38 0.15,-0.84 0.24,-1.35 0.45,1.27 0.3,2.28 -0.34,3.15 -0.19,0.26 -0.36,0.54 -0.55,0.79 -1.43,1.88 -3.08,3.21 -4.74,4.54 -0.14,0.11 -0.39,0.06 -0.55,-0.05 -0.97,-0.69 -1.93,-1.43 -2.91,-2.12 -0.16,-0.11 -0.37,-0.04 -0.56,-0.05 0.02,0.29 -0.01,0.63 0.07,0.87 0.16,0.51 0.38,0.97 0.58,1.45 -0.33,-0.17 -0.62,-0.35 -0.92,-0.47 -0.33,-0.12 -0.69,-0.13 -1.02,-0.28 -0.32,-0.15 -0.61,-0.44 -0.92,-0.64 -0.6,-0.39 -0.71,-0.29 -0.65,0.71 0.03,0.45 -0.05,0.76 -0.35,0.73 -0.55,-0.06 -1.1,-0.12 -1.63,-0.34 -0.54,-0.23 -1.23,0.22 -1.35,1.07 -0.11,0.76 0.08,1.07 0.58,0.95 0.16,-0.04 0.32,-0.09 0.6,-0.18 -0.31,0.67 -0.55,1.18 -0.87,1.9 0.38,0 0.59,0 0.81,0 0.95,-0.03 0.95,-0.03 0.85,1.45 0.32,-0.04 0.63,-0.06 0.94,-0.11 0.31,-0.05 0.44,0.14 0.39,0.63 -0.03,0.31 -0.04,0.63 -0.07,1.14 0.35,-0.22 0.59,-0.37 0.84,-0.52 0.45,-0.27 0.88,-0.04 1.17,0.66 0.24,0.58 0.36,1.2 -0.01,1.78 -0.2,0.33 -0.39,0.55 -0.63,-0.03 -0.29,-0.7 -1.75,-1.17 -2.07,-0.61 -0.28,0.49 -0.51,0.4 -0.82,0.33 -0.12,-0.03 -0.25,0.04 -0.52,0.1 0.22,0.4 0.33,0.73 0.5,0.9 0.68,0.65 0.75,1.55 0.56,2.63 -0.16,0.86 -0.27,0.93 -0.74,0.39 -0.51,-0.59 -1,-1.23 -1.54,-1.75 -0.23,-0.23 -0.56,-0.21 -0.85,-0.31 -0.03,0.08 -0.06,0.16 -0.09,0.24 0.09,0.38 0.18,0.76 0.28,1.13 0.21,0.77 0.16,0.95 -0.39,0.85 -0.77,-0.13 -1.52,-0.4 -2.28,-0.55 -0.25,-0.05 -0.51,0.1 -0.76,0.16 0.15,0.32 0.25,0.76 0.44,0.93 0.71,0.58 1.46,1.06 2.24,1.61 -0.04,0.09 -0.12,0.33 -0.23,0.55 -0.26,0.51 -0.14,0.82 0.22,0.94 0.29,0.09 0.6,0.04 0.89,0.12 0.25,0.07 0.69,0.19 0.7,0.36 0.11,1.11 0.63,0.97 1.1,0.99 0.46,0.02 0.68,0.36 0.68,1.06 0,0.19 0.03,0.39 0.05,0.75 0.4,-0.66 0.73,-1.22 1.08,-1.79 0.14,0.42 0.26,1.02 0.35,1.01 0.49,-0.05 0.56,0.53 0.74,0.98 0.2,0.5 0.38,1.07 0.65,1.45 0.3,0.42 0.63,0.72 0.71,1.42 0.02,0.18 0.23,0.32 0.36,0.46 0.38,0.39 0.77,0.76 1.15,1.15 0.17,0.17 0.33,0.34 0.64,0.65 -1.08,0.47 -2.07,0.89 -3.06,1.33 -1.5,0.67 -2.94,0.75 -4.26,-0.84 -0.18,-0.22 -0.5,-0.16 -0.76,-0.24 -0.03,0.39 -0.12,0.8 -0.06,1.16 0.12,0.74 -0.1,1 -0.5,0.96 -0.45,-0.05 -0.96,-0.03 -1.31,-0.37 -0.56,-0.52 -0.9,-0.18 -1.3,0.31 -0.26,0.32 -0.23,0.58 0.03,0.84 0.32,0.32 0.66,0.63 0.97,0.98 0.33,0.36 0.58,0.82 0.45,1.51 -0.12,0.7 0.1,0.83 0.48,0.74 0.12,-0.03 0.24,-0.07 0.35,-0.05 0.37,0.05 0.65,0.17 0.53,0.95 -0.12,0.81 0.3,1.41 0.89,1.26 0.32,-0.08 0.62,-0.35 0.93,-0.55 0.13,-0.09 0.26,-0.22 0.5,-0.44 -0.1,0.28 -0.12,0.35 -0.15,0.41 -0.19,0.45 -0.36,0.93 -0.13,1.43 0.24,0.53 0.59,0.49 0.96,0.34 0.21,-0.09 0.43,-0.16 0.64,-0.15 0.13,0 0.26,0.18 0.38,0.27 -0.06,0.19 -0.1,0.49 -0.2,0.56 -0.39,0.3 -0.78,0.6 -1.2,0.76 -1.15,0.43 -2.29,0.69 -3.28,-0.73 -0.16,-0.23 -0.42,-0.33 -0.65,-0.38 -0.26,-0.05 -0.49,0.14 -0.39,0.64 0.12,0.63 -0.14,0.67 -0.4,0.66 -0.44,-0.03 -0.87,-0.15 -1.3,-0.17 -0.32,-0.02 -0.64,0.07 -0.96,0.1 -0.02,0.1 -0.03,0.2 -0.05,0.3 0.24,0.24 0.47,0.52 0.72,0.73 0.31,0.26 0.66,0.41 0.95,0.71 0.17,0.18 0.35,0.52 0.38,0.83 0.12,1.23 0.53,1.69 1.29,1.35 0.25,-0.11 0.49,-0.21 0.74,-0.32 0.05,0.4 0.1,0.79 0.15,1.19 0,0.03 0.01,0.05 0.01,0.08 0,0.61 0.22,0.74 0.57,0.63 0.2,-0.06 0.41,-0.08 0.67,-0.13 -0.07,0.53 -0.12,0.92 -0.19,1.42 0.26,-0.04 0.47,-0.12 0.68,-0.1 0.16,0.02 0.42,0.1 0.47,0.26 0.17,0.63 0.43,0.43 0.64,0.17 0.42,-0.52 0.79,-1.13 1.2,-1.65 0.36,-0.45 0.73,-0.94 1.14,-1.23 0.56,-0.39 1.32,0.21 1.53,1.19 -0.27,0.04 -0.53,0.12 -0.78,0.11 -0.37,0 -0.88,-0.37 -1.03,0.32 -0.1,0.44 0.15,1.09 0.29,1.61 0.12,0.45 0.31,0.86 0.51,1.39 -0.39,0.09 -0.68,0.05 -0.91,0.21 -0.78,0.55 -1.54,1.18 -2.31,1.76 -0.26,0.2 -0.54,0.42 -0.82,0.48 -0.7,0.16 -1.4,0.21 -2.1,0.34 -0.64,0.12 -1.28,0.38 -1.92,0.42 -0.53,0.03 -0.86,0.21 -0.94,1.11 -0.05,0.69 -0.34,1.1 -0.81,1.16 -0.68,0.08 -1.37,0.15 -2.05,0.26 -0.19,0.03 -0.36,0.16 -0.55,0.24 0.11,0.27 0.18,0.62 0.33,0.79 0.7,0.78 1.44,1.42 2.35,1.44 0.12,0 0.24,0.09 0.44,0.17 -0.18,0.36 -0.31,0.62 -0.43,0.88 -0.13,0.27 -0.26,0.55 -0.41,0.87 1.3,0.33 1.3,0.33 1.32,1.5 0.23,-0.05 0.46,-0.11 0.69,-0.14 0.63,-0.08 1.26,-0.18 1.89,-0.18 0.11,0 0.26,0.4 0.32,0.65 0.06,0.27 0.06,0.57 0.08,0.87 0,0.04 0.01,0.08 0.01,0.13 v 0 0 c 0.08,-0.07 0.17,-0.13 0.26,-0.2 0.15,-0.11 0.29,-0.22 0.4,-0.39 0.18,-0.28 0.29,-0.69 0.42,-1.05 0.05,-0.15 0.08,-0.32 0.12,-0.48 0.33,2.06 0.33,2.06 1.61,2.22 0.08,0.01 0.17,0.01 0.25,0.01 0.56,0.01 0.96,-0.35 1.17,-1.19 0.13,-0.54 0.29,-1.06 0.49,-1.76 0.21,0.87 0.38,1.57 0.57,2.35 0.39,-0.77 0.75,-1.47 1.11,-2.17 0.14,0.56 0.14,1 0.19,1.43 0.02,0.17 0.14,0.41 0.23,0.44 0.09,0.02 0.25,-0.16 0.3,-0.31 0.12,-0.36 0.18,-0.78 0.3,-1.14 0.12,-0.36 0.27,-0.68 0.41,-1.02 0.05,0.04 0.1,0.07 0.15,0.11 0,0.26 0,0.52 0,0.89 0.37,-0.09 0.73,-0.21 1.09,-0.26 0.2,-0.03 0.41,0.05 0.61,0.08 -0.09,0.31 -0.14,0.71 -0.29,0.9 -0.83,1.06 -1.77,1.75 -2.86,1.95 -0.31,0.06 -0.69,0.13 -0.88,0.44 -0.43,0.68 -0.93,0.75 -1.47,0.79 -0.45,0.03 -0.9,0.06 -1.36,0.13 -0.14,0.02 -0.39,0.16 -0.38,0.23 0.01,0.26 0.06,0.57 0.17,0.76 0.45,0.79 1.04,1.1 1.71,1.09 0.23,0 0.47,0 0.7,0.06 0.06,0.01 0.11,0.06 0.16,0.12 0.05,0.06 0.1,0.12 0.16,0.17 -0.03,0.07 -0.06,0.14 -0.09,0.21 -0.01,0.02 -0.02,0.05 -0.03,0.07 -0.02,0.05 -0.04,0.09 -0.06,0.13 -0.02,0.04 -0.05,0.07 -0.08,0.1 -0.19,0.16 -0.4,0.28 -0.61,0.34 -0.66,0.17 -1.32,0.38 -1.99,0.45 -2.93,0.29 -5.87,0.52 -8.8,0.83 -0.61,0.06 -1.21,0.34 -1.82,0.54 -0.29,0.1 -0.58,0.26 -0.87,0.35 -0.13,0.04 -0.27,-0.09 -0.4,-0.06 -0.14,0.03 -0.33,0.11 -0.38,0.26 -0.04,0.14 0.04,0.49 0.13,0.59 0.33,0.34 0.68,0.66 1.05,0.88 0.27,0.16 0.6,0.1 0.89,0.23 0.16,0.07 0.28,0.31 0.42,0.48 -0.12,0.19 -0.22,0.41 -0.36,0.56 -0.54,0.61 -1.09,1.2 -1.64,1.8 0.03,0.07 0.06,0.14 0.09,0.21 0.43,-0.06 0.86,-0.15 1.29,-0.16 0.19,-0.01 0.5,0.08 0.54,0.25 0.17,0.69 0.49,0.53 0.82,0.54 0.18,0 0.48,0.14 0.53,0.34 0.17,0.66 0.47,0.55 0.74,0.37 0.24,-0.16 0.42,-0.51 0.63,-0.74 0.21,-0.23 0.43,-0.43 0.65,-0.64 0.04,0.08 0.09,0.16 0.13,0.23 -0.14,0.33 -0.3,0.65 -0.43,1 -0.13,0.36 -0.22,0.75 -0.34,1.13 0.32,0.02 0.64,0.08 0.96,0.04 0.13,-0.01 0.27,-0.2 0.38,-0.35 0.44,-0.63 0.68,-0.57 0.93,0.27 0.43,1.43 0.57,1.5 1.43,0.63 0.42,-0.43 0.84,-0.88 1.34,-1.41 -0.06,0.55 -0.13,0.93 -0.13,1.31 0,0.56 0.06,1.12 0.09,1.68 0.35,-0.18 0.73,-0.29 1.05,-0.56 0.4,-0.34 0.74,-0.82 1.11,-1.24 0.01,0.31 -0.05,0.51 -0.1,0.71 -0.06,0.21 -0.12,0.43 -0.16,0.65 -0.12,0.65 0.03,0.94 0.45,0.75 0.46,-0.21 0.82,-0.03 1.18,0.37 0.09,0.1 0.19,0.15 0.19,0.14 0.28,-0.31 0.46,-0.61 0.69,-0.71 0.11,-0.05 0.4,0.22 0.43,0.4 0.14,0.99 0.57,0.9 1.05,0.84 0.36,-0.05 0.72,0 1.08,0 0.02,0.13 0.03,0.25 0.05,0.38 -0.4,0.33 -0.79,0.72 -1.21,0.99 -2,1.32 -4.11,2.01 -6.26,2.51 -0.95,0.22 -1.79,0.06 -2.57,-0.85 -0.23,-0.27 -0.53,-0.46 -0.82,-0.58 -0.16,-0.06 -0.36,0.1 -0.54,0.16 0.07,0.25 0.1,0.55 0.22,0.73 0.19,0.29 0.44,0.49 0.73,0.81 -1.31,-0.16 -2.54,-0.21 -3.75,-0.48 -1.19,-0.27 -2.36,-0.77 -3.54,-1.17 -0.02,0.08 -0.04,0.15 -0.05,0.23 1,1.86 2.39,2.61 3.9,3.06 -0.44,0.12 -0.87,0.06 -1.28,0.13 -0.31,0.05 -0.76,0.07 -0.74,0.77 0.01,0.64 0.4,0.75 0.74,0.84 0.07,0.02 0.13,0.01 0.2,0.02 0.48,0.12 0.97,0.24 1.47,0.37 -0.12,0.79 -0.82,0.87 -0.71,1.93 0.36,-0.2 0.68,-0.36 0.99,-0.54 0.27,-0.16 0.5,-0.23 0.5,0.41 0,0.49 0.2,0.68 0.5,0.65 0.25,-0.02 0.5,-0.04 0.75,-0.11 0.61,-0.2 1.22,-0.43 1.9,-0.67 -0.29,0.46 -0.53,0.85 -0.77,1.24 0.02,0.07 0.05,0.13 0.07,0.2 0.35,0 0.75,-0.16 1.03,0.05 0.26,0.2 0.38,0.8 0.63,1.38 0.37,-0.54 0.77,-1.14 1.24,-1.84 -0.28,0.89 -0.54,1.63 -0.75,2.41 -0.18,0.65 0,1.04 0.43,0.82 0.64,-0.33 1.24,-0.84 1.85,-1.3 0.15,-0.11 0.27,-0.32 0.5,-0.6 -0.15,1.53 -0.45,2.69 -1.31,3.22 -0.95,0.58 -1.93,1.02 -2.89,1.59 -1.41,0.84 -2.76,0.91 -4.19,-0.03 -0.7,-0.46 -1.54,-0.47 -2.32,-0.54 -0.55,-0.05 -0.63,0.27 -0.33,0.98 0.08,0.19 0.15,0.38 0.29,0.72 -0.24,-0.06 -0.38,-0.08 -0.52,-0.12 -0.87,-0.29 -1.73,-0.62 -2.6,-0.87 -0.25,-0.07 -0.52,0.09 -0.78,0.15 -0.02,0.09 -0.03,0.18 -0.05,0.27 0.39,0.74 0.79,1.47 1.26,2.35 -0.33,-0.14 -0.53,-0.22 -0.74,-0.31 -0.97,-0.46 -1.96,-0.73 -2.98,-0.54 -0.24,0.05 -0.47,0.24 -0.7,0.36 0,0.09 0.01,0.18 0.01,0.27 1.17,1.5 2.59,1.78 4.17,1.81 -0.39,0.51 -0.71,0.87 -0.98,1.31 -0.23,0.39 -0.45,0.84 -0.58,1.33 -0.12,0.44 0,0.82 0.39,0.77 0.65,-0.08 0.66,-0.07 0.7,0.97 0.03,0.71 0.18,1.15 0.71,1.23 0.3,0.05 0.61,0.28 0.87,0.56 0.78,0.85 0.88,0.87 1.63,-0.11 0.15,-0.2 0.28,-0.42 0.43,-0.66 0.49,0.46 0.88,1.06 1.02,1.93 0.04,0.22 0,0.5 -0.06,0.71 -0.08,0.3 -0.21,0.56 -0.37,0.96 -0.08,0 -0.29,0.04 -0.5,-0.01 -0.47,-0.11 -0.94,-0.37 -1.32,0.37 -0.09,0.16 -0.31,0.2 -0.47,0.23 -0.58,0.09 -1.17,0.13 -1.75,0.24 -0.15,0.03 -0.36,0.19 -0.4,0.36 -0.04,0.18 0.07,0.49 0.17,0.66 0.47,0.81 1.09,0.81 1.72,0.73 0.6,-0.08 1.21,-0.2 1.81,-0.3 -0.06,0.2 -0.14,0.27 -0.22,0.35 -0.47,0.44 -0.96,0.86 -1.42,1.33 -0.26,0.27 -0.47,0.66 -0.3,1.18 0.18,0.55 0.5,0.4 0.8,0.26 0.3,-0.14 0.6,-0.28 0.93,-0.43 -0.14,0.33 -0.25,0.58 -0.35,0.84 0.23,0.09 0.45,0.24 0.68,0.26 0.22,0.02 0.45,-0.09 0.77,-0.16 -0.23,0.4 -0.39,0.68 -0.55,0.97 0.04,0.09 0.07,0.19 0.11,0.28 0.7,-0.37 1.4,-0.75 2.11,-1.12 0.04,0.09 0.07,0.17 0.11,0.26 -0.15,0.23 -0.31,0.45 -0.45,0.7 -0.07,0.12 -0.16,0.31 -0.14,0.43 0.02,0.12 0.18,0.26 0.26,0.25 0.33,-0.05 0.66,-0.16 0.98,-0.26 0.23,-0.08 0.46,-0.19 0.74,-0.3 -0.02,0.41 -0.04,0.68 -0.06,1.01 0.29,-0.1 0.53,-0.18 0.76,-0.27 0.03,0.07 0.05,0.14 0.08,0.21 -0.21,0.23 -0.41,0.55 -0.64,0.66 -0.33,0.16 -0.69,0.21 -1.04,0.22 -2.3,0.06 -4.6,0.08 -6.91,0.14 -0.43,0.01 -0.87,0.13 -1.3,0.2 0,0.09 -0.01,0.18 -0.01,0.28 0.14,0.09 0.29,0.17 0.42,0.27 0.32,0.22 0.65,0.4 0.94,0.69 0.15,0.15 0.21,0.49 0.31,0.74 -0.17,0.15 -0.32,0.4 -0.5,0.44 -0.66,0.15 -1.34,0.18 -2,0.35 -0.41,0.1 -0.92,0.15 -1.04,0.97 -0.07,0.47 0.42,0.88 1.06,1 0.98,0.18 1.9,-0.2 2.8,-0.7 0.27,-0.15 0.56,-0.24 0.84,-0.36 0.02,0.06 0.05,0.12 0.07,0.17 -0.08,0.17 -0.15,0.36 -0.24,0.52 -0.31,0.58 -0.64,1.13 -0.91,1.75 -0.11,0.26 -0.09,0.66 -0.13,0.99 0.22,0.05 0.45,0.21 0.65,0.13 0.44,-0.16 0.86,-0.41 1.29,-0.65 0.46,-0.27 0.56,-0.18 0.62,0.55 0.06,0.64 0.09,1.29 0.2,1.9 0.04,0.21 0.37,0.5 0.45,0.43 0.62,-0.54 1.21,-1.16 1.8,-1.76 0.05,-0.05 0.1,-0.1 0.14,-0.16 0.04,-0.06 0.09,-0.11 0.14,-0.17 0.03,0.06 0.06,0.12 0.1,0.18 0.06,0.1 0.11,0.2 0.11,0.3 0.01,0.33 -0.03,0.66 -0.09,0.98 -0.11,0.67 -0.23,1.32 -0.4,2.23 0.93,-0.59 1.51,-1.5 2.12,-2.34 0.61,-0.85 1.2,-1.73 1.8,-2.6 0.03,0.05 0.07,0.1 0.1,0.14 -0.3,1.21 -1.4,2.06 -0.71,3.87 0.54,-0.71 1.03,-1.36 1.56,-2.05 0.04,1.82 -0.16,2.32 -1.16,2.65 -0.85,0.28 -1.72,0.47 -2.58,0.68 -0.96,0.24 -1.88,0.25 -2.79,-0.49 -0.39,-0.32 -0.9,-0.33 -1.37,-0.44 -0.14,-0.03 -0.3,0.08 -0.55,0.16 0.26,0.36 0.42,0.59 0.59,0.83 -0.76,0 -1.51,0 -2.3,0 0.2,0.49 0.36,0.9 0.59,1.46 -1.14,0.17 -2.26,-0.52 -3.13,0.67 0,0.12 0,0.24 -0.01,0.37 0.61,0.2 1.22,0.39 1.83,0.59 0.01,0.08 0.03,0.15 0.04,0.23 -0.18,0.23 -0.35,0.51 -0.55,0.67 -0.55,0.44 -1.13,0.79 -1.67,1.25 -0.39,0.33 -0.74,0.78 -1.11,1.18 0.03,0.12 0.05,0.24 0.08,0.36 0.27,0.02 0.55,0.13 0.8,0.04 0.85,-0.31 1.68,-0.71 2.52,-1.05 0.22,-0.09 0.45,-0.1 0.67,-0.14 0.01,0.08 0.03,0.16 0.04,0.24 -0.15,0.16 -0.3,0.31 -0.44,0.48 -0.19,0.24 -0.43,0.46 -0.55,0.77 -0.11,0.27 -0.13,0.68 -0.09,1 0.01,0.1 0.35,0.16 0.53,0.14 0.27,-0.02 0.54,-0.13 0.9,-0.23 -0.24,0.67 -0.43,1.19 -0.65,1.81 1.09,0.1 1.66,-1.17 2.52,-1.74 -0.08,0.67 -0.14,1.19 -0.21,1.84 0.32,-0.31 0.57,-0.55 0.89,-0.87 -0.08,0.52 -0.13,0.85 -0.2,1.32 0.45,-0.54 0.8,-1.01 1.18,-1.42 0.12,-0.13 0.31,-0.1 0.47,-0.14 0.03,0.24 0.09,0.49 0.07,0.72 -0.08,0.94 0.04,1.12 0.63,0.74 0.49,-0.32 0.95,-0.77 1.43,-1.12 0.19,-0.13 0.53,-0.3 0.59,-0.19 0.31,0.58 0.66,0.34 1.02,0.26 0.14,-0.03 0.29,-0.02 0.44,-0.03 0.01,0.08 0.01,0.16 0.02,0.24 -0.52,0.25 -1.05,0.5 -1.57,0.74 -0.96,0.44 -1.93,0.83 -2.88,1.32 -0.16,0.08 -0.24,0.58 -0.35,0.88 0.21,0.16 0.43,0.49 0.62,0.46 0.5,-0.07 0.98,-0.3 1.48,-0.46 0.25,-0.08 0.5,-0.16 0.75,-0.23 0.03,0.07 0.05,0.13 0.08,0.2 -0.59,1 -1.18,1.99 -1.86,3.15 0.33,0 0.54,0.07 0.71,-0.01 0.87,-0.45 1.73,-0.94 2.6,-1.4 0.18,-0.1 0.37,-0.15 0.56,-0.22 0.03,0.07 0.06,0.15 0.09,0.22 -0.23,0.59 -0.48,1.16 -0.69,1.76 -0.06,0.19 -0.1,0.4 -0.13,0.61 -0.02,0.13 -0.04,0.26 -0.06,0.38 v 0 0 c 0.1,0.02 0.21,0.05 0.31,0.08 0.1,0.03 0.21,0.04 0.31,0.02 0.35,-0.07 0.56,0.05 0.61,0.62 0.01,0.17 0.07,0.33 0.15,0.7 0.48,-0.57 0.9,-1.08 1.4,-1.67 0.01,0.26 0.02,0.36 0.02,0.46 -0.01,1.14 0.15,1.37 0.88,1.17 0.75,-0.2 1.3,-0.92 1.78,-1.79 0.16,-0.29 0.32,-0.57 0.47,-0.86 0.02,0.75 -0.08,1.43 -0.11,2.11 -0.04,0.91 0.29,1.25 0.77,0.73 0.53,-0.58 0.97,-1.33 1.46,-2.01 0.19,-0.26 0.38,-0.53 0.62,-0.87 0.04,0.32 0.06,0.46 0.07,0.61 0.06,0.64 0.09,1.29 0.2,1.91 0.15,0.89 0.51,1.02 0.96,0.39 0.15,-0.21 0.28,-0.45 0.41,-0.68 0.21,-0.37 0.41,-0.41 0.62,0.01 0.14,0.3 0.29,0.59 0.49,1.01 0.15,-0.61 0.19,-0.96 0.31,-1.22 0.12,-0.26 0.33,-0.58 0.5,-0.59 0.37,-0.01 0.51,-0.3 0.62,-0.74 0.11,-0.44 0.22,-0.89 0.34,-1.39 0.13,0.13 0.18,0.18 0.23,0.25 0.9,1.25 1.47,1.1 2.05,-0.55 0.28,-0.8 0.56,-1.59 0.86,-2.36 0.11,-0.28 0.3,-0.48 0.45,-0.72 0.04,0.04 0.09,0.08 0.13,0.12 -0.06,0.59 -0.13,1.18 -0.19,1.77 0.87,0 1.65,-1.26 1.94,-3.14 0.13,0.38 0.24,0.72 0.39,1.17 0.67,-1.16 0.29,-2.55 0.53,-3.54 0.43,0.37 0.79,0.85 1.22,1.01 0.45,0.17 0.65,0.42 0.64,1.12 -0.07,3.51 -0.29,6.97 -1.35,10.17 -0.15,0.45 -0.28,0.92 -0.44,1.48 0.26,0 0.44,0 0.62,0 2.1,0 4.2,-0.03 6.3,0.01 1.26,0.02 1.5,0.15 0.95,-2.2 -0.47,-2 -0.71,-4.04 -0.66,-6.15 0.01,-0.38 0.11,-0.76 0.17,-1.14 0.06,-0.03 0.12,-0.05 0.18,-0.08 0.54,1.02 1.08,2.04 1.62,3.06 0.05,-0.05 0.11,-0.11 0.16,-0.16 -0.05,-0.45 -0.1,-0.91 -0.15,-1.36 0.05,-0.03 0.11,-0.06 0.16,-0.1 0.27,0.78 0.55,1.55 0.8,2.34 0.21,0.67 0.51,0.99 1.01,1.05 0.439995,0.04 0.859995,0.34 1.299995,0.5 0.14,0.05 0.38,0.1 0.42,0 0.24,-0.56 0.45,-0.26 0.66,0.01 0.22,0.28 0.41,0.61 0.65,0.86 0.12,0.14 0.3,0.16 0.46,0.24 0.04,-0.23 0.11,-0.46 0.12,-0.7 0.01,-0.31 -0.03,-0.63 -0.05,-1.01 0.35,0.33 0.64,0.64 0.94,0.87 0.15,0.11 0.42,0.19 0.51,0.06 0.39,-0.55 0.83,-0.47 1.28,-0.35 0.65,0.18 1.29,0.39 2.08,0.63 -0.41,-0.9 -0.08,-1.42 0.32,-1.82 -0.22,-0.55 -0.41,-1.01 -0.6,-1.48 0.03,-0.07 0.06,-0.14 0.1,-0.21 0.51,0.35 1.01,0.74 1.53,1.05 0.25,0.15 0.53,0.15 0.8,0.22 -0.04,-0.38 -0.08,-0.75 -0.12,-1.09 0.98,0.42 0.98,0.42 1.59,1.72 0.02,0.04 0.04,0.08 0.06,0.12 0.25,0.6 0.53,0.68 0.92,0.22 0.51,-0.61 0.73,-0.49 1.06,0.4 0.14,0.39 0.32,0.74 0.53,1.22 0.23,-0.82 0.41,-1.46 0.62,-2.23 0.23,0.42 0.39,0.71 0.55,1 0.21,0.39 0.44,0.64 0.78,0.33 0.52,-0.47 0.84,-1.25 0.72,-1.77 -0.2,-0.9 -0.4,-1.8 -0.64,-2.88 0.24,0.31 0.38,0.49 0.52,0.67 0.6,0.82 1.19,1.69 1.82,2.46 0.67,0.83 1.4,0.33 1.53,-0.99 0.02,-0.17 0.01,-0.35 0.02,-0.61 0.22,0.24 0.38,0.47 0.57,0.63 0.6,0.51 1.2,1.01 1.82,1.46 0.13,0.09 0.34,-0.06 0.51,-0.1 -0.03,-0.26 -0.03,-0.55 -0.11,-0.77 -0.16,-0.43 -0.37,-0.82 -0.6,-1.33 0.57,-0.28 1.05,-0.51 1.59,-0.77 -0.56,-0.78 -1.04,-1.45 -1.53,-2.13 0.03,-0.07 0.06,-0.13 0.09,-0.2 0.2,0.11 0.41,0.18 0.6,0.32 0.66,0.52 1.3,1.07 1.96,1.59 0.27,0.21 0.55,0.4 0.84,0.5 0.13,0.05 0.37,-0.07 0.43,-0.22 0.05,-0.14 -0.02,-0.51 -0.12,-0.66 -0.23,-0.33 -0.5,-0.58 -0.83,-0.95 1.17,-0.26 2.37,0 3.25,-1.59 -0.17,-0.09 -0.25,-0.16 -0.34,-0.18 -2.12,-0.52 -4.24,-1 -6.36,-1.56 -0.6,-0.16 -1.19,-0.53 -1.76,-0.9 -0.25,-0.16 -0.44,-0.55 -0.65,-0.83 0.03,-0.08 0.06,-0.15 0.09,-0.23 0.2,0.06 0.41,0.11 0.61,0.17 0.28,0.09 0.55,0.25 0.83,0.29 0.14,0.02 0.37,-0.11 0.42,-0.27 0.05,-0.14 -0.06,-0.47 -0.15,-0.65 -0.09,-0.17 -0.24,-0.26 -0.37,-0.38 0.03,-0.07 0.06,-0.14 0.09,-0.21 0.14,-0.01 0.29,-0.04 0.43,-0.04 0.52,0 1.04,0.04 1.56,-0.01 0.15,-0.01 0.35,-0.23 0.41,-0.43 0.04,-0.11 -0.12,-0.45 -0.24,-0.6 -0.2,-0.26 -0.43,-0.45 -0.76,-0.79 0.38,0 0.63,0.01 0.87,0 0.53,-0.04 1.07,-0.05 1.6,-0.15 0.15,-0.03 0.28,-0.3 0.42,-0.47 -0.12,-0.2 -0.21,-0.48 -0.36,-0.58 -0.4,-0.26 -0.82,-0.44 -1.24,-0.65 0.44,-0.13 0.88,-0.2 1.3,-0.39 0.43,-0.19 0.47,-0.61 0.11,-1.05 -0.19,-0.23 -0.39,-0.43 -0.72,-0.77 1.22,0.11 2.29,0.21 3.36,0.3 0.01,-0.11 0.03,-0.21 0.04,-0.32 -0.39,-0.72 -0.9,-1.11 -1.51,-1.3 -0.26,-0.08 -0.51,-0.3 -0.76,-0.45 0.02,-0.1 0.03,-0.2 0.05,-0.31 0.88,-0.36 1.9,0.42 2.71,-0.49 0,-0.13 0,-0.26 0.01,-0.4 -1.41,-0.37 -2.82,-0.74 -4.23,-1.11 0,-0.11 0,-0.22 0,-0.34 0.77,-0.33 1.55,-0.63 2.3,-1.01 0.76,-0.43 1.47,-0.85 2.15,-1.33 z"
   class="st1" />
</svg>
